<mxfile host="app.diagrams.net" modified="2024-04-22T07:52:02.050Z" agent="Mozilla/5.0 (Macintosh; Intel Mac OS X 10_15_7) AppleWebKit/605.1.15 (KHTML, like Gecko) Version/16.3 Safari/605.1.15" etag="Nu6DgOxHHCSArbSXxVuZ" version="24.2.7" type="github">
  <diagram name="第 1 页" id="xyRx1Q75V9DSBo1CHa4Q">
    <mxGraphModel dx="838" dy="615" grid="1" gridSize="10" guides="1" tooltips="1" connect="1" arrows="1" fold="1" page="1" pageScale="1" pageWidth="827" pageHeight="1169" math="0" shadow="0">
      <root>
        <mxCell id="0" />
        <mxCell id="1" parent="0" />
        <mxCell id="KaLK60nYUMTK_aKv2EbV-1" value="User&lt;div style=&quot;font-size: 16px;&quot;&gt;(人)&lt;/div&gt;" style="rounded=1;whiteSpace=wrap;html=1;strokeWidth=2;fillWeight=4;hachureGap=8;hachureAngle=45;fillColor=#dae8fc;sketch=1;fontFamily=Comic Sans MS;fontStyle=0;fontSize=16;strokeColor=#6c8ebf;" vertex="1" parent="1">
          <mxGeometry x="180" y="60" width="160" height="70" as="geometry" />
        </mxCell>
        <mxCell id="KaLK60nYUMTK_aKv2EbV-4" value="&lt;font style=&quot;font-size: 16px;&quot;&gt;Command&lt;/font&gt;&lt;div style=&quot;font-size: 16px;&quot;&gt;Interpreter&lt;/div&gt;" style="rounded=1;whiteSpace=wrap;html=1;strokeWidth=2;fillWeight=4;hachureGap=8;hachureAngle=45;fillColor=#dae8fc;sketch=1;fontFamily=Comic Sans MS;fontStyle=0;fontSize=18;strokeColor=#6c8ebf;" vertex="1" parent="1">
          <mxGeometry x="140" y="210" width="260" height="70" as="geometry" />
        </mxCell>
        <mxCell id="KaLK60nYUMTK_aKv2EbV-9" value="User&lt;div&gt;Programs&lt;/div&gt;" style="rounded=1;whiteSpace=wrap;html=1;strokeWidth=2;fillWeight=4;hachureGap=8;hachureAngle=45;fillColor=#dae8fc;sketch=1;fontFamily=Comic Sans MS;fontStyle=0;fontSize=16;strokeColor=#6c8ebf;" vertex="1" parent="1">
          <mxGeometry x="450" y="60" width="160" height="70" as="geometry" />
        </mxCell>
        <mxCell id="KaLK60nYUMTK_aKv2EbV-11" value="System&lt;div&gt;Calls&lt;/div&gt;" style="rounded=1;whiteSpace=wrap;html=1;strokeWidth=2;fillWeight=4;hachureGap=8;hachureAngle=45;fillColor=#dae8fc;sketch=1;fontFamily=Comic Sans MS;fontStyle=0;fontSize=16;strokeColor=#6c8ebf;" vertex="1" parent="1">
          <mxGeometry x="400" y="210" width="260" height="70" as="geometry" />
        </mxCell>
        <mxCell id="KaLK60nYUMTK_aKv2EbV-17" value="重要 Services" style="rounded=1;whiteSpace=wrap;html=1;strokeWidth=2;fillWeight=4;hachureGap=8;hachureAngle=45;fillColor=#dae8fc;sketch=1;fontFamily=Comic Sans MS;fontStyle=0;fontSize=18;strokeColor=#6c8ebf;" vertex="1" parent="1">
          <mxGeometry x="140" y="280" width="520" height="100" as="geometry" />
        </mxCell>
        <mxCell id="KaLK60nYUMTK_aKv2EbV-19" value="命令" style="edgeStyle=orthogonalEdgeStyle;rounded=0;orthogonalLoop=1;jettySize=auto;html=1;exitX=0.25;exitY=1;exitDx=0;exitDy=0;entryX=0.308;entryY=0.029;entryDx=0;entryDy=0;entryPerimeter=0;" edge="1" parent="1" source="KaLK60nYUMTK_aKv2EbV-1" target="KaLK60nYUMTK_aKv2EbV-4">
          <mxGeometry relative="1" as="geometry" />
        </mxCell>
        <mxCell id="KaLK60nYUMTK_aKv2EbV-20" value="結果" style="edgeStyle=orthogonalEdgeStyle;rounded=0;orthogonalLoop=1;jettySize=auto;html=1;exitX=0.5;exitY=0;exitDx=0;exitDy=0;entryX=0.563;entryY=1.029;entryDx=0;entryDy=0;entryPerimeter=0;" edge="1" parent="1" source="KaLK60nYUMTK_aKv2EbV-4" target="KaLK60nYUMTK_aKv2EbV-1">
          <mxGeometry relative="1" as="geometry" />
        </mxCell>
        <mxCell id="KaLK60nYUMTK_aKv2EbV-21" value="服務請求" style="edgeStyle=orthogonalEdgeStyle;rounded=0;orthogonalLoop=1;jettySize=auto;html=1;exitX=0.25;exitY=1;exitDx=0;exitDy=0;entryX=0.346;entryY=-0.029;entryDx=0;entryDy=0;entryPerimeter=0;" edge="1" parent="1" source="KaLK60nYUMTK_aKv2EbV-9" target="KaLK60nYUMTK_aKv2EbV-11">
          <mxGeometry relative="1" as="geometry" />
        </mxCell>
        <mxCell id="KaLK60nYUMTK_aKv2EbV-22" value="服務結果" style="edgeStyle=orthogonalEdgeStyle;rounded=0;orthogonalLoop=1;jettySize=auto;html=1;exitX=0.75;exitY=0;exitDx=0;exitDy=0;entryX=0.906;entryY=0.971;entryDx=0;entryDy=0;entryPerimeter=0;" edge="1" parent="1" source="KaLK60nYUMTK_aKv2EbV-11" target="KaLK60nYUMTK_aKv2EbV-9">
          <mxGeometry relative="1" as="geometry" />
        </mxCell>
        <mxCell id="KaLK60nYUMTK_aKv2EbV-23" value="Hardware" style="rounded=1;whiteSpace=wrap;html=1;strokeWidth=2;fillWeight=4;hachureGap=8;hachureAngle=45;fillColor=#dae8fc;sketch=1;fontFamily=Comic Sans MS;fontStyle=0;fontSize=18;strokeColor=#6c8ebf;" vertex="1" parent="1">
          <mxGeometry x="140" y="380" width="520" height="80" as="geometry" />
        </mxCell>
        <mxCell id="KaLK60nYUMTK_aKv2EbV-24" value="" style="strokeWidth=2;html=1;shape=mxgraph.flowchart.annotation_1;align=left;pointerEvents=1;rotation=-180;" vertex="1" parent="1">
          <mxGeometry x="660" y="210" width="50" height="60" as="geometry" />
        </mxCell>
        <mxCell id="KaLK60nYUMTK_aKv2EbV-25" value="" style="strokeWidth=2;html=1;shape=mxgraph.flowchart.annotation_1;align=left;pointerEvents=1;rotation=-180;" vertex="1" parent="1">
          <mxGeometry x="660" y="300" width="40" height="60" as="geometry" />
        </mxCell>
        <mxCell id="KaLK60nYUMTK_aKv2EbV-26" value="UI" style="rounded=0;whiteSpace=wrap;html=1;" vertex="1" parent="1">
          <mxGeometry x="720" y="220" width="40" height="30" as="geometry" />
        </mxCell>
        <mxCell id="KaLK60nYUMTK_aKv2EbV-27" value="Kernel" style="rounded=0;whiteSpace=wrap;html=1;" vertex="1" parent="1">
          <mxGeometry x="710" y="310" width="60" height="30" as="geometry" />
        </mxCell>
      </root>
    </mxGraphModel>
  </diagram>
</mxfile>
